<svg xmlns="http://www.w3.org/2000/svg" xmlns:xlink="http://www.w3.org/1999/xlink" width="400" zoomAndPan="magnify" viewBox="0 0 300 299.999988" height="400" preserveAspectRatio="xMidYMid meet" version="1.0"><defs><clipPath id="ec037c01a8"><path d="M 88 17.265625 L 218 17.265625 L 218 188 L 88 188 Z M 88 17.265625 " clip-rule="nonzero"/></clipPath><clipPath id="129b62338c"><path d="M 31.472656 176 L 112 176 L 112 255 L 31.472656 255 Z M 31.472656 176 " clip-rule="nonzero"/></clipPath><clipPath id="56eed9c872"><path d="M 32 166 L 143 166 L 143 269.964844 L 32 269.964844 Z M 32 166 " clip-rule="nonzero"/></clipPath><clipPath id="a42a925088"><path d="M 31.472656 177 L 68 177 L 68 266 L 31.472656 266 Z M 31.472656 177 " clip-rule="nonzero"/></clipPath><clipPath id="267b66cdd2"><path d="M 155 162 L 268.347656 162 L 268.347656 269.964844 L 155 269.964844 Z M 155 162 " clip-rule="nonzero"/></clipPath><clipPath id="49ca3c502b"><path d="M 162 168 L 263 168 L 263 269.964844 L 162 269.964844 Z M 162 168 " clip-rule="nonzero"/></clipPath></defs><g clip-path="url(#ec037c01a8)"><path fill="#798b44" d="M 201.191406 156.15625 C 201.71875 156.886719 202.230469 157.605469 202.730469 158.300781 C 206.703125 164.914062 214.070312 167.921875 216.957031 168.625 C 218.558594 169.011719 215.570312 173.824219 217.015625 176.699219 L 216.957031 176.726562 C 216.671875 178.847656 214.695312 180.796875 210.691406 183.265625 C 197.753906 191.226562 194.714844 185.445312 194.367188 178.199219 C 195.984375 175.214844 197.355469 172.945312 199.242188 170.585938 C 199.503906 170.257812 199.445312 169.550781 199.175781 168.625 C 198.550781 166.492188 197.21875 161.699219 189.078125 151.472656 C 177.085938 133.84375 152.511719 115.824219 143.886719 77.121094 C 143.90625 76.320312 143.933594 75.460938 143.964844 74.523438 C 140.59375 78.914062 124.578125 97.226562 119.699219 134.175781 C 117.558594 150.371094 110.242188 156.261719 110.742188 166.082031 C 109.597656 170.699219 111.050781 173.066406 114.566406 180.449219 C 119.328125 190.464844 83.386719 179.316406 89.683594 172.875 C 91.773438 170.738281 94.960938 170.839844 99.097656 164.988281 C 114.148438 152.964844 110.414062 136.355469 124.683594 95.195312 C 136.523438 61.042969 159.855469 32.679688 180.667969 17.269531 C 183.675781 18.203125 186.152344 21.21875 187.875 26.804688 C 188.574219 29.0625 188.085938 30.390625 186.574219 31.632812 C 172.476562 38.660156 150.769531 50.25 150.492188 68.019531 C 150.492188 68.246094 150.535156 68.582031 150.625 68.996094 C 149.496094 78.5 152.300781 93.292969 168.105469 117.289062 C 179.316406 134.300781 192.601562 147.304688 201.191406 156.15625 Z M 201.191406 156.15625 " fill-opacity="1" fill-rule="evenodd"/></g><path fill="#415128" d="M 89.542969 173.03125 C 89.585938 172.980469 89.632812 172.925781 89.683594 172.875 C 91.773438 170.738281 94.960938 170.839844 99.097656 164.988281 C 114.148438 152.964844 110.414062 136.355469 124.683594 95.195312 C 126.484375 90.003906 128.550781 84.949219 130.832031 80.050781 C 128.878906 85.757812 127.8125 90.371094 124.328125 101.671875 C 146.128906 60.125 145.121094 57.308594 161.160156 44.113281 C 160.484375 46.253906 159.707031 48.171875 158.886719 49.9375 C 154.34375 54.699219 151.117188 60.183594 150.574219 66.46875 C 149.304688 70.585938 148.957031 75.398438 150.421875 82.136719 C 161.980469 135.449219 196.488281 142.234375 201.835938 171.695312 C 202.710938 176.519531 208.433594 177.851562 205.382812 180.089844 C 203.207031 181.683594 199.367188 181.859375 194.753906 181.429688 C 194.539062 180.417969 194.417969 179.328125 194.367188 178.199219 C 195.984375 175.214844 197.355469 172.945312 199.242188 170.585938 C 199.503906 170.257812 199.445312 169.550781 199.175781 168.625 C 198.550781 166.492188 197.21875 161.699219 189.078125 151.472656 C 177.085938 133.84375 152.511719 115.824219 143.886719 77.121094 C 143.90625 76.320312 143.933594 75.460938 143.964844 74.523438 C 140.699219 78.777344 125.582031 96.082031 120.195312 130.71875 C 119.433594 127.882812 119.367188 125.722656 118.734375 123.105469 C 119.191406 156.707031 93.851562 163.617188 106.617188 180.53125 C 107.667969 181.921875 107.027344 183.1875 105.46875 183.847656 C 101.09375 182.9375 96.152344 181.105469 92.824219 179.023438 C 91.5625 177.453125 90.429688 175.480469 89.542969 173.03125 Z M 89.542969 173.03125 " fill-opacity="1" fill-rule="evenodd"/><path fill="#282f28" d="M 114.492188 131.308594 C 111.527344 158.890625 103.578125 165.082031 100.816406 167.234375 C 94.488281 172.164062 98.503906 173.738281 104.808594 178.789062 C 98.316406 179.453125 98.546875 178.082031 92.101562 176.550781 C 90.417969 176.152344 90.4375 173.957031 90.84375 171.9375 C 92.886719 170.601562 95.664062 169.84375 99.097656 164.988281 C 108.675781 157.335938 110.648438 147.824219 114.492188 131.308594 Z M 152.851562 58.382812 C 152.960938 52.714844 152.980469 50.640625 159.601562 45.753906 C 167.027344 40.277344 179.042969 34.835938 186.171875 31.835938 C 174.824219 37.503906 158.816406 46.082031 152.851562 58.382812 Z M 198.523438 166.605469 C 198.625 166.710938 198.722656 166.820312 198.828125 166.925781 C 201.664062 169.914062 199.019531 172.890625 198.960938 173.578125 C 198.496094 178.769531 200.777344 177.554688 205.136719 180.210938 C 200.078125 182.375 196.996094 182.914062 194.804688 181.671875 C 194.558594 180.59375 194.425781 179.414062 194.367188 178.199219 C 195.984375 175.214844 197.355469 172.945312 199.242188 170.585938 C 199.503906 170.257812 199.445312 169.550781 199.175781 168.625 C 199.027344 168.113281 198.835938 167.457031 198.523438 166.605469 Z M 126.273438 106.335938 C 131.40625 86.160156 141.359375 72.058594 148.011719 62.316406 C 147.382812 67.234375 145.855469 70.726562 146.855469 84.726562 C 146.972656 86.34375 147.09375 87.753906 147.21875 89.011719 C 145.945312 85.273438 144.820312 81.316406 143.886719 77.121094 C 143.90625 76.320312 143.933594 75.460938 143.964844 74.523438 C 141.582031 77.625 132.890625 87.675781 126.273438 106.335938 Z M 126.273438 106.335938 " fill-opacity="1" fill-rule="evenodd"/><path fill="#a0d700" d="M 207.601562 174.964844 C 204.332031 174.867188 206.25 172.90625 204.839844 169.988281 C 202.242188 164.621094 192.253906 150.792969 191.085938 149.171875 C 192.429688 150.066406 194.140625 151.207031 205.195312 163.5625 C 209.738281 168.640625 213.496094 167.703125 211.046875 174 Z M 146.191406 59.363281 C 149.546875 47.589844 159.429688 45.394531 175.226562 27.941406 C 185.78125 16.285156 186.578125 26.917969 186.117188 27.65625 C 180.8125 36.132812 171.304688 27.753906 145.777344 60.71875 Z M 106.371094 176.082031 C 104.757812 175.394531 105.125 175.179688 103.113281 172.171875 C 106.167969 168.503906 108.492188 160.496094 110.632812 155.375 C 107.992188 168.113281 109.253906 173.195312 109.75 177.894531 Z M 106.371094 176.082031 " fill-opacity="1" fill-rule="evenodd"/><path fill="#b4172c" d="M 121.769531 192.6875 C 126.640625 196.25 128.378906 198.191406 127.960938 207.625 C 124.335938 289.355469 23.445312 246.148438 35.851562 222.421875 C 44.03125 206.777344 39.910156 189.179688 54.238281 187.257812 C 58.945312 186.628906 83.585938 216.21875 87.597656 210.421875 C 89.289062 207.984375 99.242188 183.6875 121.769531 192.6875 Z M 121.769531 192.6875 C 119.996094 191.394531 117.8125 189.886719 115.167969 187.730469 L 123.320312 193.355469 C 122.796875 193.113281 122.277344 192.894531 121.769531 192.6875 Z M 121.769531 192.6875 " fill-opacity="1" fill-rule="evenodd"/><path fill="#9e1f30" d="M 131.105469 196.007812 C 131.742188 196.375 132.222656 196.792969 132.515625 197.265625 Z M 74.417969 209.59375 C 58.839844 205.582031 54.703125 193.71875 67.273438 184.683594 C 68.453125 183.835938 78.507812 181.589844 78.882812 180.683594 C 83.339844 169.949219 101.5 179.347656 118.953125 185.167969 L 131.105469 196.007812 C 125.21875 192.636719 106.257812 194.074219 104.722656 202.539062 C 104.515625 203.695312 104.296875 204.671875 104.046875 205.496094 C 103.75 219.886719 107.113281 228.800781 97.476562 226.554688 C 86.761719 224.050781 85.390625 226.40625 77.941406 218.300781 C 75.300781 215.421875 74.292969 212.46875 74.417969 209.59375 Z M 120.695312 217.613281 L 125.132812 230.753906 C 117.949219 250.980469 89.640625 261.003906 70.738281 255.292969 C 42.371094 246.730469 43.042969 233.851562 43.195312 230.910156 C 45.15625 193.210938 55.875 234.140625 57.753906 234.769531 C 57.871094 234.808594 62.898438 232.578125 63.882812 238.75 C 66.007812 252.097656 79.730469 240.089844 81.457031 240.324219 C 82.972656 240.527344 98.824219 249.855469 109.699219 228.542969 C 110.265625 227.441406 110.886719 226.21875 120.695312 217.613281 Z M 120.695312 217.613281 " fill-opacity="1" fill-rule="evenodd"/><path fill="#9c1d32" d="M 121.765625 188.875 L 132.261719 197.222656 C 141.253906 202.007812 137.28125 204.757812 131.96875 213.425781 C 129.707031 217.117188 132.074219 235.230469 120.78125 246.511719 C 117 250.289062 93.390625 264.613281 84.867188 262.902344 C 62.636719 258.441406 61.273438 263.664062 49.578125 256.667969 C 38.878906 250.265625 45.988281 210.835938 45.976562 210.410156 C 52.269531 218.699219 46.714844 221.007812 52.378906 229.722656 C 53.363281 231.238281 52.09375 235.066406 52.410156 235.859375 C 55.605469 243.898438 61.417969 244.316406 61.617188 244.582031 C 69.0625 254.484375 85.496094 245.144531 86.386719 245.296875 C 91.394531 246.152344 91.238281 246.140625 91.429688 246.132812 C 123.007812 244.546875 105.257812 187.15625 121.765625 188.875 Z M 81.605469 169.65625 L 98.867188 181.976562 C 94.632812 183.433594 84.671875 177.058594 74.238281 178.324219 C 72.941406 178.480469 26.578125 188.53125 49.695312 175.171875 C 57.25 170.804688 76.257812 164.828125 81.605469 169.65625 Z M 81.605469 169.65625 " fill-opacity="1" fill-rule="evenodd"/><path fill="#c63247" d="M 113.246094 247.082031 C 134.363281 232.53125 138.066406 235.730469 136.769531 237.304688 C 124.898438 251.707031 126.847656 253.820312 110.894531 263.382812 C 99.128906 270.4375 87.332031 265.914062 85.425781 265.179688 Z M 76.035156 166.65625 C 74.699219 166.394531 71.304688 165.730469 59.269531 169.476562 C 57.621094 169.988281 55.410156 170.675781 40.722656 180.492188 C 45.492188 175.457031 65.640625 150.296875 95.222656 165.933594 C 96.21875 166.460938 95.203125 166.707031 96.21875 167.332031 L 94.601562 167.492188 Z M 76.035156 166.65625 " fill-opacity="1" fill-rule="evenodd"/><path fill="#7f1d2d" d="M 78.863281 180.921875 C 63.429688 174.828125 55.003906 188.664062 54.320312 183.808594 C 54.101562 182.25 62.347656 170.96875 83.796875 178.472656 C 85.046875 178.910156 85.128906 177.539062 100.25 180.210938 L 116.691406 186.242188 C 100.335938 185.226562 95.769531 190.839844 83.605469 183.328125 C 82.339844 182.546875 81.109375 181.898438 79.917969 181.367188 C 79.84375 181.71875 79.28125 182.285156 78.117188 183.097656 L 94.476562 198.464844 C 96.699219 200.148438 104.203125 187.203125 104.007812 191.210938 C 107.289062 197.277344 98.289062 210.226562 98.097656 210.851562 C 93.390625 212.519531 93.148438 212.332031 93.117188 212.96875 C 92.886719 217.90625 94.324219 218.203125 91.824219 222.464844 L 90.734375 219.902344 C 85.703125 219.449219 85.476562 220.144531 81.265625 217.285156 C 79.542969 216.113281 80.605469 215.664062 81.25 211.609375 C 80.09375 212.828125 81.140625 198.84375 79.984375 200.0625 L 77.386719 213.503906 C 75.011719 215.648438 76.5 201.539062 75.957031 200.507812 C 73.558594 195.941406 70.46875 197.871094 66.890625 201.503906 C 65.199219 194.074219 50.242188 194.296875 55.105469 190.980469 C 63.078125 185.550781 75.226562 181.109375 78.863281 180.921875 Z M 83.898438 166.554688 C 73.9375 166.433594 61.59375 169.242188 56.46875 170.058594 C 66.269531 163.328125 87.246094 162.304688 93.820312 168.78125 Z M 83.898438 166.554688 " fill-opacity="1" fill-rule="evenodd"/><g clip-path="url(#129b62338c)"><path fill="#ce626e" d="M 34.535156 219.332031 C 28.007812 217.4375 32.957031 182.183594 61.003906 176.546875 C 59.386719 181.605469 51.503906 198.273438 36.042969 219.855469 Z M 109.003906 216.839844 L 108.738281 218.210938 C 108.175781 227.03125 100.378906 231.09375 99.636719 223.460938 C 104.207031 226.175781 104.304688 223.609375 109.003906 216.839844 Z M 110.40625 239.535156 L 111.714844 239.59375 C 108.503906 241.207031 108.777344 245.09375 105.328125 243.65625 C 102.257812 242.378906 109.507812 240.761719 110.40625 239.535156 Z M 84.964844 246.597656 L 84.402344 246.796875 C 88.328125 254.882812 78.898438 254.300781 78.726562 254.21875 C 74.148438 251.910156 77.464844 243.542969 77.660156 248.527344 C 77.875 253.949219 80.109375 249.566406 80.117188 249.359375 C 80.269531 245.792969 81.464844 246.105469 84.964844 246.597656 Z M 73.402344 241.023438 C 74.246094 236.882812 75.746094 238.363281 75.796875 238.628906 C 76.460938 242.167969 71.269531 242.527344 70.554688 240.265625 C 70.488281 240.058594 70.683594 240.125 72.371094 238.265625 L 72.714844 239.929688 Z M 80.890625 236.515625 C 78.328125 234.242188 81.121094 232.964844 81.617188 232.253906 C 81.335938 235.378906 82.855469 234.34375 85.921875 234.304688 L 82.664062 236.425781 C 83.472656 238.144531 79.898438 236.816406 79.671875 236.730469 Z M 67.539062 233.039062 L 67.550781 234.101562 C 66.289062 234.03125 61.601562 235.507812 65.074219 230.128906 C 66.160156 231.746094 65.972656 231.835938 67.539062 233.039062 Z M 54.441406 223.609375 C 56.085938 223.957031 57.015625 223.828125 56.214844 225.410156 C 55.117188 227.570312 53.636719 225.613281 53.554688 225.5625 Z M 62.171875 239.527344 L 64.269531 239.886719 C 65.59375 241.882812 60.136719 240.640625 62.171875 239.527344 Z M 62.171875 239.527344 " fill-opacity="1" fill-rule="evenodd"/></g><g clip-path="url(#56eed9c872)"><path fill="#ea8188" d="M 74.148438 167.398438 C 73.859375 167.171875 73.578125 166.941406 73.296875 166.714844 C 91.148438 164.222656 90.101562 171.40625 90.128906 171.503906 L 105.328125 180.433594 C 107.796875 180.699219 108.1875 180.726562 109.53125 180.421875 C 127.089844 176.417969 147.363281 188.648438 140.765625 193.96875 C 140.527344 194.160156 140.292969 194.351562 140.066406 194.539062 L 140.5625 194.707031 C 139.832031 195.367188 134.230469 200.429688 128.527344 194.101562 C 127.875 193.730469 127.175781 193.308594 126.429688 192.832031 L 101.800781 182.691406 C 101.722656 182.632812 101.023438 182.128906 100.398438 181.566406 C 91.6875 178.234375 82.539062 173.613281 75.726562 168.601562 C 74.5625 169.082031 70.761719 169.441406 70.421875 169.472656 C 68.738281 169.632812 54.5 170.96875 50.152344 175.519531 C 46.625 179.210938 60.507812 174.832031 68.1875 174.894531 C 88.9375 175.058594 91.261719 180.398438 93.238281 181.917969 L 95.242188 182.933594 C 90.238281 182.523438 71.863281 172.917969 59.632812 177.984375 C 59.519531 178.027344 54.992188 176.820312 32.609375 205.699219 C 34.261719 173.472656 59.710938 162.210938 74.148438 167.398438 Z M 131.023438 241.113281 L 133.644531 236.335938 C 129.605469 245.769531 125.257812 257.25 109.078125 266.140625 C 92.011719 275.515625 80.683594 264.667969 74.53125 264.960938 C 66.859375 265.324219 66.773438 265.25 60.136719 261.097656 C 74.675781 260.679688 75.578125 258.394531 82.742188 262.136719 C 110.269531 276.523438 119.652344 248.757812 131.023438 241.113281 Z M 131.023438 241.113281 " fill-opacity="1" fill-rule="evenodd"/></g><g clip-path="url(#a42a925088)"><path fill="#cf505e" d="M 55.328125 251.285156 L 67.136719 265.253906 C 23.0625 255.28125 32.125 212.453125 32.457031 212.613281 C 38.171875 215.382812 38.371094 207.238281 52.03125 187.417969 C 72.710938 157.410156 49.800781 201.578125 48.570312 206.722656 C 40.804688 239.253906 52.574219 246.816406 55.328125 251.285156 Z M 55.328125 251.285156 " fill-opacity="1" fill-rule="evenodd"/></g><path fill="#901f34" d="M 126.300781 194.277344 L 133.851562 199.082031 C 137.367188 212.984375 136.316406 215.824219 131.074219 223.683594 C 130.683594 224.269531 136.554688 236.574219 120.03125 247.257812 C 102.980469 258.28125 104.902344 276.746094 78.910156 261.863281 C 71.960938 257.882812 64.609375 269.886719 57.988281 254.992188 C 59.046875 255.609375 69.996094 262.019531 73.003906 258.035156 C 78.03125 251.394531 80.371094 259.199219 88.132812 256.40625 C 115.917969 246.40625 113.003906 229.414062 119.121094 196.703125 C 124.488281 200.894531 124.324219 201.300781 124.90625 201.222656 C 126.75 200.96875 125.921875 200.117188 126.300781 194.277344 Z M 126.300781 194.277344 " fill-opacity="1" fill-rule="evenodd"/><path fill="#7e1e30" d="M 136.164062 220.824219 C 133.71875 238.277344 126.882812 234.105469 113.984375 248.863281 C 100.097656 264.753906 98.273438 269.941406 79.429688 260.46875 C 81.203125 260.414062 100.46875 261.851562 108.242188 247.882812 C 109.398438 247.023438 111.179688 245.710938 117.9375 232.730469 C 119.714844 229.320312 117.976562 217.070312 121.167969 198.214844 C 124.390625 209.25 124.042969 209.332031 124.628906 210.128906 C 125.164062 210.847656 127.527344 211.5625 129.453125 200.019531 C 129.585938 199.222656 129.730469 198.367188 123.382812 191.941406 C 130.695312 194.324219 130.679688 193.742188 138.328125 193.550781 C 144.546875 193.398438 139.066406 214.398438 138.609375 216.148438 Z M 86.949219 170.183594 C 84.464844 169.152344 84.332031 169.445312 82.433594 167.496094 C 86.132812 167.632812 86.140625 167.953125 87.902344 167.320312 C 84.285156 165.84375 80.492188 164.128906 79.851562 163.839844 C 79.621094 163.734375 75.246094 162.109375 74.84375 161.957031 C 76.296875 162.085938 87.085938 163.027344 93.476562 164.570312 C 95.019531 164.941406 96.304688 165.351562 97.140625 165.792969 C 97.648438 166.058594 96.402344 167.730469 95.796875 169.035156 C 95.292969 170.128906 95.917969 170.988281 91.929688 170.324219 Z M 119.375 178.984375 L 110.921875 172.640625 L 110.429688 170.570312 L 110.324219 169.011719 C 112.160156 167.84375 113.433594 168.351562 116.980469 169.761719 C 119.917969 170.929688 123.515625 172.839844 127.902344 175.269531 C 137.609375 180.652344 141.6875 186.171875 145.097656 196.257812 C 125.941406 178.027344 121.828125 178.625 119.375 178.984375 Z M 119.375 178.984375 " fill-opacity="1" fill-rule="evenodd"/><path fill="#681227" d="M 105.28125 267.21875 C 105.269531 267.222656 105.257812 267.234375 105.246094 267.242188 L 105.003906 267.296875 C 105.085938 267.273438 105.179688 267.246094 105.28125 267.21875 Z M 105.28125 267.21875 C 106.976562 266.132812 119.199219 259.570312 124.71875 251.699219 C 132.480469 240.636719 124.785156 238.199219 130.625 226.011719 L 140.078125 203.914062 C 147.042969 222.203125 144.65625 223.019531 136.402344 240.75 C 127.292969 260.3125 109.140625 266.074219 105.28125 267.21875 Z M 87.007812 170.492188 C 86.996094 169.789062 86.984375 169.078125 95.460938 168.183594 C 94.960938 168 95.207031 167.851562 89.582031 165.121094 C 90.382812 165.21875 95.117188 165.613281 98.472656 165.914062 C 97.292969 167.617188 95.445312 173.375 91.730469 172.761719 C 91.289062 172.6875 91.675781 172.621094 86.488281 172.960938 Z M 112.355469 176.761719 C 112.113281 175.792969 106.683594 165.355469 115.289062 170.378906 C 127.917969 177.753906 129.851562 175.152344 138.703125 187.015625 C 128.054688 182.511719 127.003906 185.265625 117.183594 178.953125 Z M 82.40625 266.914062 L 81.265625 267.410156 C 71.675781 266.015625 71.480469 267.617188 62.71875 263.960938 C 75.976562 264.460938 75.695312 262.054688 76.800781 262.296875 C 80.558594 263.121094 79.078125 265.128906 82.40625 266.914062 Z M 82.40625 266.914062 " fill-opacity="1" fill-rule="evenodd"/><path fill="#62101f" d="M 95.285156 170.6875 L 93.320312 172.441406 C 93.375 172.765625 92.835938 172.574219 92.894531 172.894531 C 92.941406 173.160156 108.824219 182.058594 113.644531 179.136719 C 107.640625 170.621094 117.835938 175.632812 116.726562 175.855469 C 111.5 176.90625 120.636719 179.300781 125.09375 182.144531 C 101.765625 184.328125 85.777344 174.863281 84.1875 170.226562 C 83.429688 168.011719 87.757812 169.3125 92.027344 170.121094 C 93.429688 170.386719 94.074219 170.671875 95.285156 170.6875 Z M 135.773438 199.625 C 124.851562 199.304688 116.75 188.394531 107.539062 186.515625 C 93.953125 183.746094 93.300781 185.585938 80.644531 177.796875 C 81.070312 177.953125 89.996094 182.03125 99.066406 183.101562 C 97.664062 182.539062 88.519531 178.863281 82.699219 173.777344 C 75.964844 167.894531 54.445312 162.878906 69.113281 165.210938 C 77.75 166.582031 78.109375 163.628906 89.441406 167.707031 C 77.4375 166.371094 76.972656 166.949219 76.3125 167.765625 C 81.78125 171.476562 87.996094 177.152344 102.140625 181.3125 C 124.179688 187.789062 124.839844 186.933594 129.4375 183.734375 C 128.523438 187.761719 128.996094 188.363281 125.25 190.015625 C 127.1875 191.117188 133.554688 195.167969 134.269531 195.625 C 140.15625 191.480469 142.910156 189.507812 145.003906 196.476562 C 147.234375 203.914062 146.222656 231.898438 135.5 236.121094 C 125.445312 240.078125 125.492188 207.898438 132.605469 202.078125 Z M 135.773438 199.625 " fill-opacity="1" fill-rule="evenodd"/><path fill="#ffffff" d="M 72.429688 237.832031 C 73.644531 236.542969 73.714844 236.753906 75.480469 236.363281 C 74.039062 238.875 74.332031 240.316406 71.664062 239.234375 C 70.207031 238.640625 69.636719 238.828125 69.945312 237.269531 Z M 86.671875 235.621094 C 89.078125 236.460938 91.882812 236.234375 89.53125 237.179688 C 88.15625 237.730469 88.183594 237.503906 86.695312 237.144531 Z M 107.03125 242.8125 L 107.585938 243.210938 C 106.636719 244.761719 106.992188 245.222656 105.675781 245.335938 C 103.269531 245.542969 106.847656 242.949219 107.03125 242.8125 Z M 125.273438 183.25 L 125.871094 184.265625 C 125.496094 185.238281 123.460938 190.488281 112.871094 184.507812 C 119.355469 184.644531 119.578125 186.175781 125.273438 183.25 Z M 92.480469 185.039062 L 92.683594 185.578125 C 93.464844 188.101562 93.453125 188.097656 93.660156 188.175781 C 95.558594 188.894531 93 190.78125 94.570312 191.039062 C 95.859375 191.253906 95.976562 191.324219 96.195312 192.660156 L 96.5625 191.953125 C 96.523438 195.242188 96.484375 195.1875 95.679688 198.410156 C 95.210938 195.382812 95.253906 195.453125 94.574219 192.515625 C 94.375 196.175781 94.421875 196.160156 93.433594 199.664062 C 93.015625 193.625 92.132812 193.851562 92.113281 193.335938 C 92.078125 192.484375 93.261719 189.433594 92.574219 189.3125 C 89.746094 188.800781 91.191406 187.605469 92.480469 185.039062 Z M 86.269531 196.242188 L 85.449219 192.328125 C 84.734375 189.78125 85.242188 189.808594 85.53125 187.140625 L 83.203125 186.390625 C 84.679688 183.316406 84.839844 183.417969 84.957031 183.148438 L 86.050781 186.511719 C 87.304688 185.996094 87.445312 185.539062 87.625 186.175781 C 87.851562 186.957031 87.972656 187.386719 86.269531 196.242188 Z M 97.660156 189.054688 C 97.792969 188.816406 98.664062 187.304688 100.917969 188.023438 C 104.351562 189.121094 104.355469 188.808594 108 188.308594 C 106.226562 191.617188 105.171875 189.578125 103.132812 189.964844 C 102.238281 190.132812 101.347656 191.285156 99.515625 191.351562 C 99.34375 191.355469 99.390625 191.253906 97.789062 190 Z M 108.722656 189.75 C 109.234375 189.542969 109.28125 188.699219 109.785156 188.492188 C 109.988281 188.410156 112.28125 189.453125 111.203125 190.054688 C 109.550781 190.972656 108.285156 190.242188 108.066406 190.117188 Z M 78.199219 163.53125 L 77.808594 163.585938 C 73.269531 163.074219 72.992188 162.640625 73.316406 162.464844 C 76.414062 160.753906 81.109375 162.335938 81.648438 162.460938 C 81.097656 162.472656 81.132812 162.460938 75.699219 162.289062 Z M 118.289062 173.609375 L 119.472656 174.070312 C 119.546875 174.105469 126.003906 176.335938 125.324219 178.738281 C 124.894531 180.261719 122.269531 179.980469 122.707031 179.171875 C 124.714844 175.4375 120.683594 177.007812 118.289062 173.609375 Z M 118.289062 173.609375 " fill-opacity="1" fill-rule="evenodd"/><path fill="#b61b2e" d="M 249.796875 179.492188 C 268.609375 198.382812 222.355469 226.140625 184.035156 221.519531 C 142.226562 216.480469 171.089844 170.007812 180.683594 176.183594 C 183.988281 178.3125 198.695312 184.765625 206.9375 181.078125 C 215.394531 177.292969 223.859375 167.128906 240.21875 171.082031 Z M 249.796875 179.492188 " fill-opacity="1" fill-rule="evenodd"/><path fill="#b21227" d="M 250.726562 181.839844 L 258.171875 185.964844 C 261.019531 193.613281 259.335938 193.6875 256.917969 201.550781 C 254.109375 210.679688 254.535156 213.707031 254.144531 215.828125 C 248.726562 245.148438 218.597656 253.820312 215.457031 253.789062 C 209.046875 253.734375 165.347656 241.980469 162.804688 223.894531 C 157.828125 188.46875 217.027344 212.898438 230.203125 201.949219 C 244.660156 189.933594 241.171875 185.839844 250.726562 181.839844 Z M 250.726562 181.839844 " fill-opacity="1" fill-rule="evenodd"/><path fill="#9e1830" d="M 228.886719 173.226562 C 218.660156 177.53125 215.683594 192.769531 193.859375 188.875 C 177.710938 185.992188 180.746094 195.238281 172.835938 198.640625 C 170.578125 199.609375 162.5 193.691406 164.164062 184.753906 C 166.199219 173.832031 173.753906 173.085938 180.527344 171.929688 C 177.925781 179.707031 186.992188 175.828125 193.121094 173.917969 C 194.195312 184.753906 198.902344 182.277344 208.972656 177.945312 C 216.085938 174.886719 214.015625 172.710938 216.207031 170.367188 C 218.574219 167.839844 221.851562 166.691406 225.160156 166.28125 L 225.636719 165.550781 C 226.847656 165.363281 228.046875 165.316406 229.226562 165.378906 L 229.296875 164.851562 C 230.792969 164.320312 234.507812 165.582031 237.9375 167.398438 C 238.03125 167.425781 238.109375 167.445312 238.171875 167.460938 L 238.144531 167.507812 C 239.671875 168.328125 241.132812 169.257812 242.304688 170.179688 C 244.816406 171.863281 246.375 173.398438 246.417969 173.628906 C 246.84375 175.847656 242.367188 175.738281 237.109375 174.890625 C 234.902344 174.644531 232.179688 174.128906 228.886719 173.226562 Z M 254.648438 187.179688 L 259.757812 191.5 C 262.058594 194.414062 264.714844 194.539062 261.507812 210.179688 C 256.542969 234.402344 254.101562 239.097656 252.902344 241.394531 C 237.613281 270.75 222.457031 260.191406 214.046875 261.75 C 186.011719 266.949219 173.855469 253.21875 166.015625 210.992188 C 189.269531 232.34375 190.378906 232.789062 193.003906 233.835938 C 209.863281 240.578125 210.0625 214.222656 210.992188 207.640625 C 213.140625 220.628906 210.878906 240 222.847656 241.648438 C 238.734375 243.835938 231.386719 208.070312 254.648438 187.179688 Z M 254.648438 187.179688 " fill-opacity="1" fill-rule="evenodd"/><path fill="#fc475e" d="M 174.449219 194.410156 C 192.671875 195.324219 192.984375 196.988281 202.265625 193.957031 C 205.542969 192.882812 210.019531 190.105469 213.390625 190.316406 C 234.167969 191.636719 246.808594 169.601562 234.828125 191.675781 C 230.507812 199.636719 214.136719 205.921875 204.074219 207.484375 C 196.957031 208.585938 200.546875 207.835938 194.394531 208.453125 C 172.101562 210.6875 168.65625 194.117188 167.1875 193.644531 L 172.453125 194.265625 C 172.296875 193.824219 172.152344 193.21875 172.015625 192.421875 C 171.207031 187.761719 175.257812 183.859375 175.824219 183.3125 L 184.28125 184.34375 C 178.96875 188.046875 176.140625 192.601562 174.449219 194.410156 Z M 176.960938 178.050781 C 189.226562 173.410156 190.445312 177.382812 197.394531 181.972656 C 181.9375 185.304688 180.820312 177.453125 166.550781 184.261719 Z M 186.949219 185.085938 L 191.601562 186.042969 C 184.882812 187.972656 185 188.191406 179.574219 192.679688 C 181.195312 190.566406 182.78125 186.710938 186.949219 185.085938 Z M 226.203125 229.753906 C 225.914062 229.511719 222.441406 226.566406 223.769531 225.699219 C 224.980469 224.90625 227.742188 227.585938 228.851562 227.363281 C 228.890625 227.355469 232.367188 223.964844 232.652344 225.019531 C 233.972656 229.921875 231.300781 228.960938 226.355469 230.207031 Z M 226.039062 236.226562 L 225.902344 236.519531 C 228.378906 240.007812 225.914062 239.917969 223.597656 241 C 224.519531 239.050781 224.339844 238.75 222.464844 237.699219 C 221.308594 237.050781 222.703125 237.117188 226.039062 236.226562 Z M 215.519531 227.628906 C 215.546875 227.6875 215.84375 232.265625 220.558594 231.226562 C 222.59375 230.773438 221.125 229.953125 220.027344 227.433594 C 220.378906 227.640625 224.28125 229.957031 220.695312 232.503906 C 216.796875 235.277344 214.777344 229.5 214.589844 228.964844 Z M 240.460938 169.285156 L 229.511719 163.308594 C 236.320312 163.824219 244.015625 165.796875 254.117188 176.253906 C 266.519531 189.09375 266.644531 200.097656 267.332031 205.511719 C 258.949219 187.976562 257.679688 184.402344 240.460938 169.285156 Z M 240.460938 169.285156 " fill-opacity="1" fill-rule="evenodd"/><path fill="#ead6d7" d="M 209.007812 217.808594 L 207.210938 225.988281 C 206.9375 227.125 207.417969 231.417969 203.621094 231.875 C 202.207031 232.046875 202.046875 226.25 202.03125 225.746094 C 204.332031 229.230469 204.429688 230.117188 204.886719 229.292969 C 206.886719 225.679688 204.28125 221.222656 209.007812 217.808594 Z M 219.179688 224.53125 L 218.714844 225.425781 C 218.691406 228.484375 219.355469 230.367188 218.035156 228.988281 C 216 226.871094 216.996094 226.449219 219.179688 224.53125 Z M 224.570312 231.328125 C 225.242188 229.839844 225.308594 229.359375 226.832031 230.042969 C 228.175781 230.644531 231.839844 228.421875 232.226562 228.183594 L 231.472656 230.554688 C 230.703125 230.628906 230.164062 231.519531 229.390625 231.59375 C 228.96875 231.636719 228.996094 231.597656 224.050781 231.652344 Z M 176.464844 180.429688 C 181.511719 177.953125 181.726562 179.664062 187.226562 180.414062 C 186.625 180.910156 185.941406 181.472656 177.488281 180.769531 Z M 188.089844 181.441406 C 188.542969 181.289062 188.492188 180.441406 188.945312 180.292969 C 190.257812 179.855469 190.789062 181.203125 190.289062 181.601562 C 189.761719 182.03125 189.761719 181.785156 188.089844 181.441406 Z M 188.089844 181.441406 " fill-opacity="1" fill-rule="evenodd"/><path fill="#911c20" d="M 264.203125 194.945312 C 266.496094 201.367188 267.992188 204.265625 267.585938 210.492188 C 267.484375 212.027344 268.148438 214.785156 266.75 218.949219 C 266.582031 219.457031 266.398438 220.023438 266.296875 220.589844 C 266.140625 221.484375 265.976562 222.367188 265.804688 223.234375 C 261.824219 243.605469 254.703125 256.453125 252.207031 251.460938 C 240.78125 228.605469 256.816406 207.234375 258.890625 203.878906 Z M 199.414062 170.152344 L 199.28125 170.710938 L 198.5625 171.554688 L 191.722656 177.28125 C 181.402344 177.203125 175.878906 178.734375 165.875 178.464844 C 173.058594 167.449219 179.464844 168.058594 181.675781 167.84375 C 194.128906 166.613281 198.164062 169.371094 199.414062 170.152344 Z M 199.414062 170.152344 " fill-opacity="1" fill-rule="evenodd"/><g clip-path="url(#267b66cdd2)"><path fill="#c24851" d="M 155.746094 208.0625 L 164.277344 203.617188 C 183.210938 260.855469 209.394531 265.742188 215.8125 266.941406 C 204.324219 270.507812 196.894531 272.484375 176.328125 256.609375 C 160.046875 244.035156 154.335938 210.109375 155.746094 208.0625 Z M 266.898438 217.359375 C 269.300781 211.441406 261.480469 183.308594 251.484375 174.460938 C 234.058594 159.027344 229.925781 170.976562 219.226562 173.480469 C 219.203125 169.589844 218.574219 169.773438 215.835938 167.054688 C 211.742188 163 240.53125 158.746094 253.285156 171.28125 C 269.496094 187.210938 269.546875 209.925781 267.296875 217.195312 Z M 266.898438 217.359375 " fill-opacity="1" fill-rule="evenodd"/></g><g clip-path="url(#49ca3c502b)"><path fill="#a52a3b" d="M 257.925781 204.78125 C 257.152344 211.308594 273.46875 241.753906 247.394531 262.613281 C 233.902344 273.410156 215.140625 267.773438 215.003906 267.773438 C 205.097656 267.851562 204.15625 268.59375 197.289062 260.457031 C 222.082031 259.433594 231.121094 261.453125 242.546875 240.992188 Z M 162.828125 181.351562 C 166.824219 172.875 170.523438 170.507812 180.835938 168.652344 C 180.390625 169.109375 175.773438 173.824219 178.410156 176.234375 C 180.746094 178.367188 181.441406 175.375 190.929688 177.222656 C 177.777344 178.714844 177.785156 179.230469 173.960938 182.179688 C 168.484375 186.398438 164.726562 185.304688 164.1875 185.183594 Z M 162.828125 181.351562 " fill-opacity="1" fill-rule="evenodd"/></g><path fill="#88222f" d="M 259.019531 205.308594 C 249.484375 230.835938 258.757812 237.578125 254.5625 251.140625 C 252.078125 259.164062 239.972656 272.226562 222.417969 261.703125 C 224.839844 260.945312 237.222656 257.082031 242.816406 237.378906 Z M 199.304688 170.085938 L 197.570312 173.675781 C 194.246094 180.640625 193.410156 180.511719 189.84375 180.273438 C 185.570312 179.988281 189.4375 175.542969 189.703125 175.242188 C 189.078125 169.886719 195.65625 170.292969 199.304688 170.085938 Z M 211.050781 166.269531 C 212.332031 165.871094 225.417969 161.703125 227.847656 163.828125 C 228.457031 164.363281 215.027344 167.132812 220.972656 169.878906 C 224.789062 171.644531 215.558594 175.898438 214.921875 176.191406 C 215.261719 172.257812 216.296875 174.289062 214.890625 170.253906 L 213.171875 167.832031 Z M 211.050781 166.269531 " fill-opacity="1" fill-rule="evenodd"/><path fill="#7a182d" d="M 214.390625 262.78125 C 214.171875 263.078125 213.921875 263.386719 213.632812 263.710938 C 209.695312 268.164062 203.839844 267.230469 202.957031 267.089844 C 196.460938 266.058594 192.550781 262.101562 191.386719 261.21875 C 199.882812 258.078125 200.28125 258.386719 206.011719 251.394531 L 209.019531 243.253906 C 210.5625 248.457031 212.1875 251.875 213.425781 254.355469 C 213.664062 252.402344 214.058594 250.058594 214.535156 247.132812 C 219.046875 249.296875 224.488281 258.585938 231.976562 251.820312 C 237.609375 246.726562 235.605469 240.472656 241.539062 228.445312 L 242.441406 239.273438 C 241.179688 248.894531 242.460938 249.464844 236.824219 257.425781 C 227.710938 270.304688 217.632812 267.351562 215.3125 264.207031 C 214.957031 263.726562 214.648438 263.253906 214.390625 262.78125 Z M 214.390625 262.78125 " fill-opacity="1" fill-rule="evenodd"/><path fill="#8d2231" d="M 263.304688 202.628906 C 249.273438 221.929688 255.976562 264.125 227.125 262.296875 C 245.6875 254.53125 238.515625 246.714844 241.875 228.609375 C 244.515625 214.386719 259.726562 197.386719 261.804688 195.0625 Z M 198.503906 260.972656 L 206.230469 262.441406 C 200.972656 269.753906 175.074219 265.917969 161.632812 229.832031 C 176.910156 250.484375 184.601562 255.015625 198.503906 260.972656 Z M 198.503906 260.972656 " fill-opacity="1" fill-rule="evenodd"/><path fill="#8a1928" d="M 202.183594 181.484375 C 202.082031 181.472656 201.988281 181.464844 201.910156 181.457031 L 210.710938 177.800781 C 225.976562 171.003906 224.730469 167.695312 237.660156 165.835938 C 232.214844 167.414062 232.121094 167.222656 219.878906 175.144531 C 215.714844 177.84375 212.328125 179.421875 209.652344 180.339844 C 206 182.492188 201.394531 184.53125 197.417969 184.101562 C 183.714844 182.625 183.746094 181.335938 170.011719 183.195312 C 176.675781 179.402344 176.984375 179.589844 187.171875 180.890625 C 195.886719 182.003906 198.246094 182.632812 202.183594 181.484375 Z M 165.039062 208.015625 L 165.921875 205.050781 C 183.542969 248.25 199.261719 252.335938 203.742188 254.796875 C 193.652344 260.035156 191.273438 259.003906 180.851562 244.09375 C 170.855469 229.800781 165.914062 212.582031 165.039062 208.015625 Z M 165.039062 208.015625 " fill-opacity="1" fill-rule="evenodd"/><path fill="#6f172b" d="M 252.246094 206.101562 L 247.613281 215.574219 C 240.460938 237.484375 245.851562 262.726562 226.3125 263.738281 C 211.058594 264.527344 213.445312 252.71875 213.570312 243.035156 C 216.28125 247.164062 222.875 264.921875 236.191406 253.253906 C 243.269531 247.054688 231.089844 229.652344 252.246094 206.101562 Z M 211.0625 228.09375 L 210 255.488281 C 207.910156 263.632812 207.640625 266.277344 199.457031 264.148438 C 184.785156 260.335938 179.964844 255.910156 171.492188 243.214844 C 186.996094 257.027344 191.960938 256.988281 197.355469 255.121094 C 208.414062 251.28125 210.960938 228.648438 211.0625 228.09375 Z M 197.488281 173.589844 C 194.164062 179.21875 195.238281 178.921875 195.710938 179.191406 C 198.425781 180.742188 205.585938 179.925781 209.570312 177.269531 C 216.25 172.816406 213.320312 168.226562 212.726562 167.222656 C 216.316406 167.316406 216.019531 169.042969 217.214844 172.445312 C 217.757812 173.984375 215.320312 175.851562 215.421875 176.128906 C 215.625 176.683594 215.84375 176.277344 219.390625 174.675781 C 217.675781 175.992188 204.433594 186.191406 193.1875 181.269531 C 187.179688 178.636719 189.796875 175.011719 197.859375 172.796875 Z M 197.488281 173.589844 " fill-opacity="1" fill-rule="evenodd"/><path fill="#62101f" d="M 175.585938 182.820312 C 186.347656 180.519531 187.03125 186.457031 197.46875 185.265625 C 208.335938 184.023438 219.050781 175.480469 222.050781 173.964844 L 222.902344 174.289062 C 219.929688 178.175781 215.730469 186.148438 202.90625 188.324219 C 193.691406 189.890625 188.148438 187.210938 178.769531 184.757812 C 176.726562 191.125 178.550781 192.789062 176.300781 201.828125 C 174.539062 208.921875 158.292969 220.023438 157.917969 219.265625 C 146.242188 195.480469 166.65625 167.589844 172.445312 175.585938 C 174.753906 178.769531 173.484375 181.34375 175.585938 182.820312 Z M 223.769531 175.742188 L 223.71875 173.15625 C 229.230469 168.289062 230.027344 169.789062 237.003906 172.039062 C 239.148438 169.425781 237.417969 167.339844 239.359375 167.972656 C 247.992188 170.808594 267.953125 189.980469 264.976562 211.746094 C 257.152344 183.613281 236.402344 172.871094 223.769531 175.742188 Z M 223.769531 175.742188 " fill-opacity="1" fill-rule="evenodd"/><path fill="#ffffff" d="M 180.105469 195.160156 C 180.0625 195.136719 180.019531 195.113281 179.980469 195.09375 L 180.714844 195.023438 C 180.472656 195.050781 180.269531 195.097656 180.105469 195.160156 Z M 180.714844 195.023438 C 180.765625 195.015625 180.820312 195.011719 180.875 195.007812 Z M 180.105469 195.160156 C 183 196.695312 184.652344 199.304688 193.980469 197.386719 C 199.304688 196.289062 200.6875 194.867188 201.234375 195.132812 C 204.910156 196.933594 205.019531 195.769531 208.980469 194.765625 C 209.261719 200.277344 205.144531 200.042969 201.539062 200.289062 C 201.289062 200.308594 186.664062 203.609375 183.484375 200.988281 C 183.113281 200.679688 177.5625 196.101562 180.105469 195.160156 Z M 211.714844 196.726562 C 212.621094 192.25 215.074219 195.234375 219.046875 193.015625 C 219.40625 192.8125 219.578125 192.375 219.929688 192.160156 C 223.382812 190.046875 223.957031 191.125 224.914062 190.878906 C 219.757812 197.9375 215.328125 197.445312 211.714844 196.726562 Z M 211.714844 196.726562 C 211.707031 196.746094 211.703125 196.769531 211.699219 196.792969 L 211.121094 196.605469 C 211.316406 196.644531 211.511719 196.683594 211.714844 196.726562 Z M 211.714844 196.726562 " fill-opacity="1" fill-rule="evenodd"/></svg>